HIERARCHY
ROOT Hip
{
	OFFSET	0.0000	0.0000	0.0000
	CHANNELS 6 Xposition Yposition Zposition Xrotation Yrotation Zrotation
	JOINT LowerSpine
	{
		OFFSET	0.0000	10.1395	-5.4869
		CHANNELS 3 Xrotation Yrotation Zrotation
		JOINT MiddleSpine
		{
			OFFSET	0.0000	9.2531	0.4833
			CHANNELS 3 Xrotation Yrotation Zrotation
			JOINT Chest
			{
				OFFSET	0.0000	11.4497	-2.5486
				CHANNELS 3 Xrotation Yrotation Zrotation
				JOINT Neck
				{
					OFFSET	0.0000	25.8013	-0.5366
					CHANNELS 3 Xrotation Yrotation Zrotation
					JOINT Head
					{
						OFFSET	0.0000	14.5703	3.9631
						CHANNELS 3 Xrotation Yrotation Zrotation
						End Site
						{
							OFFSET	0.0001	20.3585	0.6077
						}
					}
				}
				JOINT LClavicle
				{
					OFFSET	2.6049	24.8995	8.5307
					CHANNELS 3 Xrotation Yrotation Zrotation
					JOINT LShoulder
					{
						OFFSET	15.2179	3.5715	-5.7790
						CHANNELS 3 Xrotation Yrotation Zrotation
						JOINT LForearm
						{
							OFFSET	32.3260	-0.1148	-0.2801
							CHANNELS 3 Xrotation Yrotation Zrotation
							JOINT LHand
							{
								OFFSET	26.9666	0.0782	-0.1615
								CHANNELS 3 Xrotation Yrotation Zrotation
								JOINT LFinger1
								{
									OFFSET	10.4515	0.9140	2.9028
									CHANNELS 3 Xrotation Yrotation Zrotation
									JOINT LFinger11
									{
										OFFSET	3.9094	-0.9533	0.6888
										CHANNELS 3 Xrotation Yrotation Zrotation
										JOINT LFinger12
										{
											OFFSET	2.6688	-0.6511	0.4705
											CHANNELS 3 Xrotation Yrotation Zrotation
											End Site
											{
												OFFSET	1.8991	-0.5669	0.3081
											}
										}
									}
								}
								JOINT LFinger2
								{
									OFFSET	10.6075	1.0556	0.2528
									CHANNELS 3 Xrotation Yrotation Zrotation
									JOINT LFinger21
									{
										OFFSET	4.8337	0.0135	-0.0285
										CHANNELS 3 Xrotation Yrotation Zrotation
										JOINT LFinger22
										{
											OFFSET	2.6792	0.0081	-0.0163
											CHANNELS 3 Xrotation Yrotation Zrotation
											End Site
											{
												OFFSET	2.4065	-0.1699	0.0032
											}
										}
									}
								}
								JOINT LFinger3
								{
									OFFSET	10.0528	0.7043	-2.3782
									CHANNELS 3 Xrotation Yrotation Zrotation
									JOINT LFinger31
									{
										OFFSET	4.3861	-0.2221	-0.2746
										CHANNELS 3 Xrotation Yrotation Zrotation
										JOINT LFinger32
										{
											OFFSET	2.4994	-0.1257	-0.1571
											CHANNELS 3 Xrotation Yrotation Zrotation
											End Site
											{
												OFFSET	2.2099	-0.2717	-0.1045
											}
										}
									}
								}
								JOINT LFinger4
								{
									OFFSET	9.3286	-0.7090	-4.1074
									CHANNELS 3 Xrotation Yrotation Zrotation
									JOINT LFinger41
									{
										OFFSET	2.6979	-0.5626	-0.7447
										CHANNELS 3 Xrotation Yrotation Zrotation
										JOINT LFinger42
										{
											OFFSET	1.9783	-0.4120	-0.5465
											CHANNELS 3 Xrotation Yrotation Zrotation
											End Site
											{
												OFFSET	1.7559	-0.4825	-0.4029
											}
										}
									}
								}
								JOINT LFinger0
								{
									OFFSET	2.1619	-1.6364	1.6390
									CHANNELS 3 Xrotation Yrotation Zrotation
									JOINT LFinger01
									{
										OFFSET	4.0253	-1.3221	3.0349
										CHANNELS 3 Xrotation Yrotation Zrotation
										JOINT LFinger02
										{
											OFFSET	2.6507	-0.9484	1.9097
											CHANNELS 3 Xrotation Yrotation Zrotation
											End Site
											{
												OFFSET	1.9492	-0.6710	1.3347
											}
										}
									}
								}
							}
						}
					}
				}
				JOINT RClavicle
				{
					OFFSET	-2.6049	24.8995	8.5307
					CHANNELS 3 Xrotation Yrotation Zrotation
					JOINT RShoulder
					{
						OFFSET	-15.2206	3.5721	-5.7800
						CHANNELS 3 Xrotation Yrotation Zrotation
						JOINT RForearm
						{
							OFFSET	-32.3260	-0.1148	-0.2801
							CHANNELS 3 Xrotation Yrotation Zrotation
							JOINT RHand
							{
								OFFSET	-26.9666	0.0783	-0.1615
								CHANNELS 3 Xrotation Yrotation Zrotation
								JOINT RFinger1
								{
									OFFSET	-10.4515	0.9140	2.9028
									CHANNELS 3 Xrotation Yrotation Zrotation
									JOINT RFinger11
									{
										OFFSET	-3.9094	-0.9533	0.6888
										CHANNELS 3 Xrotation Yrotation Zrotation
										JOINT RFinger12
										{
											OFFSET	-2.6688	-0.6511	0.4705
											CHANNELS 3 Xrotation Yrotation Zrotation
											End Site
											{
												OFFSET	-1.8991	-0.5669	0.3081
											}
										}
									}
								}
								JOINT RFinger2
								{
									OFFSET	-10.6075	1.0556	0.2528
									CHANNELS 3 Xrotation Yrotation Zrotation
									JOINT RFinger21
									{
										OFFSET	-4.8337	0.0135	-0.0285
										CHANNELS 3 Xrotation Yrotation Zrotation
										JOINT RFinger22
										{
											OFFSET	-2.6792	0.0081	-0.0163
											CHANNELS 3 Xrotation Yrotation Zrotation
											End Site
											{
												OFFSET	-2.4065	-0.1699	0.0032
											}
										}
									}
								}
								JOINT RFinger3
								{
									OFFSET	-10.0528	0.7043	-2.3782
									CHANNELS 3 Xrotation Yrotation Zrotation
									JOINT RFinger31
									{
										OFFSET	-4.3861	-0.2221	-0.2746
										CHANNELS 3 Xrotation Yrotation Zrotation
										JOINT RFinger32
										{
											OFFSET	-2.4994	-0.1257	-0.1571
											CHANNELS 3 Xrotation Yrotation Zrotation
											End Site
											{
												OFFSET	-2.2099	-0.2717	-0.1045
											}
										}
									}
								}
								JOINT RFinger4
								{
									OFFSET	-9.3286	-0.7090	-4.1074
									CHANNELS 3 Xrotation Yrotation Zrotation
									JOINT RFinger41
									{
										OFFSET	-2.6979	-0.5626	-0.7447
										CHANNELS 3 Xrotation Yrotation Zrotation
										JOINT RFinger42
										{
											OFFSET	-1.9783	-0.4120	-0.5465
											CHANNELS 3 Xrotation Yrotation Zrotation
											End Site
											{
												OFFSET	-1.7559	-0.4825	-0.4029
											}
										}
									}
								}
								JOINT RFinger0
								{
									OFFSET	-2.1619	-1.6364	1.6390
									CHANNELS 3 Xrotation Yrotation Zrotation
									JOINT RFinger01
									{
										OFFSET	-4.0253	-1.3221	3.0350
										CHANNELS 3 Xrotation Yrotation Zrotation
										JOINT RFinger02
										{
											OFFSET	-2.6507	-0.9484	1.9097
											CHANNELS 3 Xrotation Yrotation Zrotation
											End Site
											{
												OFFSET	-1.9492	-0.6710	1.3347
											}
										}
									}
								}
							}
						}
					}
				}
			}
		}
	}
	JOINT RThigh
	{
		OFFSET	-10.8468	4.5834	-0.8941
		CHANNELS 3 Xrotation Yrotation Zrotation
		JOINT RShin
		{
			OFFSET	-0.8679	-47.1786	0.0000
			CHANNELS 3 Xrotation Yrotation Zrotation
			JOINT RFoot
			{
				OFFSET	0.0000	-46.3265	0.0000
				CHANNELS 3 Xrotation Yrotation Zrotation
				JOINT RToe
				{
					OFFSET	0.0000	-5.0917	10.6474
					CHANNELS 3 Xrotation Yrotation Zrotation
					End Site
					{
						OFFSET	0.0000	0.0000	7.1429
					}
				}
			}
		}
	}
	JOINT LThigh
	{
		OFFSET	10.8467	4.5837	-0.8941
		CHANNELS 3 Xrotation Yrotation Zrotation
		JOINT LShin
		{
			OFFSET	0.8680	-47.1789	0.0000
			CHANNELS 3 Xrotation Yrotation Zrotation
			JOINT LFoot
			{
				OFFSET	0.0000	-46.3265	0.0000
				CHANNELS 3 Xrotation Yrotation Zrotation
				JOINT LToe
				{
					OFFSET	0.0000	-5.0917	10.6474
					CHANNELS 3 Xrotation Yrotation Zrotation
					End Site
					{
						OFFSET	0.0000	0.0000	7.1429
					}
				}
			}
		}
	}
}
MOTION
Frames:	4
Frame Time: 0.0333333000
	10.6235	95.9346	58.9488	-33.623040	7.074114	-8.104722	0.000000	0.000000	0.000000	11.034930	-0.502941	4.935599	36.661610	1.970975	16.178200	0.000000	0.000000	0.000000	0.000000	0.000000	0.000000	0.000000	0.000000	-12.429240	-0.739583	-39.293490	-51.515090	-3.096726	-30.184210	-0.011603	0.000000	0.000000	0.000000	0.000000	0.000000	0.000000	0.000000	0.000000	0.000000	0.000000	0.000000	0.000000	0.000000	0.000000	0.000000	0.000000	0.000000	0.000000	0.000000	0.000000	0.000000	0.000000	0.000000	0.000000	0.000000	0.000000	0.000000	0.000000	0.000000	0.000000	0.000000	0.000000	0.000000	0.000000	0.000000	0.000000	0.000000	0.000000	0.000000	0.000000	0.000000	0.000000	0.000000	0.000000	0.000000	0.000000	0.000000	0.000000	0.000000	0.000000	8.670445	13.269330	15.816940	32.789730	3.140073	45.413110	0.115562	0.000000	0.000000	0.000000	0.000000	0.000000	0.000000	0.000000	0.000000	0.000000	0.000000	0.000000	0.000000	0.000000	0.000000	0.000000	0.000000	0.000000	0.000000	0.000000	0.000000	0.000000	0.000000	0.000000	0.000000	0.000000	0.000000	0.000000	0.000000	0.000000	0.000000	0.000000	0.000000	0.000000	0.000000	0.000000	0.000000	0.000000	0.000000	0.000000	0.000000	0.000000	0.000000	0.000000	0.000000	0.000000	0.000000	0.000000	0.000000	27.429640	2.491329	11.547430	4.879467	-0.180691	-0.925274	-0.010127	1.909976	0.913401	-0.000001	0.000000	0.000000	26.232490	-21.710370	11.583280	46.441020	-16.763670	17.282930	-0.119149	0.797557	0.382423	-16.235650	0.000000	0.000000
	10.6618	95.9072	58.9108	-33.586700	7.234697	-8.070748	0.000000	0.000000	0.000000	11.021340	-0.540893	4.934153	36.643800	1.877458	16.203780	0.000000	0.000000	0.000000	0.000000	0.000000	0.000000	0.000000	0.000000	-12.446520	-0.612483	-39.204370	-51.447730	-3.041856	-29.889890	-0.011182	0.000000	0.000000	0.000000	0.000000	0.000000	0.000000	0.000000	0.000000	0.000000	0.000000	0.000000	0.000000	0.000000	0.000000	0.000000	0.000000	0.000000	0.000000	0.000000	0.000000	0.000000	0.000000	0.000000	0.000000	0.000000	0.000000	0.000000	0.000000	0.000000	0.000000	0.000000	0.000000	0.000000	0.000000	0.000000	0.000000	0.000000	0.000000	0.000000	0.000000	0.000000	0.000000	0.000000	0.000000	0.000000	0.000000	0.000000	0.000000	0.000000	0.000000	8.654680	13.387860	15.881780	32.724400	3.282439	45.433600	0.116865	0.000000	0.000000	0.000000	0.000000	0.000000	0.000000	0.000000	0.000000	0.000000	0.000000	0.000000	0.000000	0.000000	0.000000	0.000000	0.000000	0.000000	0.000000	0.000000	0.000000	0.000000	0.000000	0.000000	0.000000	0.000000	0.000000	0.000000	0.000000	0.000000	0.000000	0.000000	0.000000	0.000000	0.000000	0.000000	0.000000	0.000000	0.000000	0.000000	0.000000	0.000000	0.000000	0.000000	0.000000	0.000000	0.000000	0.000000	0.000000	27.397670	2.489171	11.560400	4.903471	-0.206970	-0.850986	-0.217281	1.492499	0.717891	-0.000001	0.000000	0.000000	26.157330	-21.764560	11.619310	46.486820	-16.785420	17.329360	-0.099508	0.767847	0.368014	-16.492440	0.000000	0.000000
	10.7035	95.8775	58.8672	-33.543000	7.373330	-8.045067	0.000000	0.000000	0.000000	11.007650	-0.580159	4.928635	36.623100	1.781196	16.217770	0.000000	0.000000	0.000000	0.000000	0.000000	0.000000	0.000000	0.000000	-12.470460	-0.455945	-39.036780	-51.381270	-3.003740	-29.711040	-0.010988	0.000000	0.000000	0.000000	0.000000	0.000000	0.000000	0.000000	0.000000	0.000000	0.000000	0.000000	0.000000	0.000000	0.000000	0.000000	0.000000	0.000000	0.000000	0.000000	0.000000	0.000000	0.000000	0.000000	0.000000	0.000000	0.000000	0.000000	0.000000	0.000000	0.000000	0.000000	0.000000	0.000000	0.000000	0.000000	0.000000	0.000000	0.000000	0.000000	0.000000	0.000000	0.000000	0.000000	0.000000	0.000000	0.000000	0.000000	0.000000	0.000000	0.000000	8.635995	13.489830	15.939150	32.677730	3.402251	45.473050	0.118217	0.000000	0.000000	0.000000	0.000000	0.000000	0.000000	0.000000	0.000000	0.000000	0.000000	0.000000	0.000000	0.000000	0.000000	0.000000	0.000000	0.000000	0.000000	0.000000	0.000000	0.000000	0.000000	0.000000	0.000000	0.000000	0.000000	0.000000	0.000000	0.000000	0.000000	0.000000	0.000000	0.000000	0.000000	0.000000	0.000000	0.000000	0.000000	0.000000	0.000000	0.000000	0.000000	0.000000	0.000000	0.000000	0.000000	0.000000	0.000000	27.328020	2.478172	11.553060	4.939213	-0.233437	-0.735339	-0.438781	0.870703	0.420579	-0.000001	0.000000	0.000000	26.071430	-21.806830	11.652600	46.573680	-16.794410	17.388060	-0.073761	0.737069	0.353061	-16.780620	0.000000	0.000000
	10.7416	95.8507	58.8242	-33.499310	7.500405	-8.036181	0.000000	0.000000	0.000000	11.000910	-0.599244	4.923642	36.594330	1.682220	16.214020	0.000000	0.000000	0.000000	0.000000	0.000000	0.000000	0.000000	0.000000	-12.480310	-0.269784	-38.710540	-51.332700	-3.022362	-29.846740	-0.010850	0.000000	0.000000	0.000000	0.000000	0.000000	0.000000	0.000000	0.000000	0.000000	0.000000	0.000000	0.000000	0.000000	0.000000	0.000000	0.000000	0.000000	0.000000	0.000000	0.000000	0.000000	0.000000	0.000000	0.000000	0.000000	0.000000	0.000000	0.000000	0.000000	0.000000	0.000000	0.000000	0.000000	0.000000	0.000000	0.000000	0.000000	0.000000	0.000000	0.000000	0.000000	0.000000	0.000000	0.000000	0.000000	0.000000	0.000000	0.000000	0.000000	0.000000	8.628934	13.581760	15.983120	32.690760	3.493050	45.526790	0.119315	0.000000	0.000000	0.000000	0.000000	0.000000	0.000000	0.000000	0.000000	0.000000	0.000000	0.000000	0.000000	0.000000	0.000000	0.000000	0.000000	0.000000	0.000000	0.000000	0.000000	0.000000	0.000000	0.000000	0.000000	0.000000	0.000000	0.000000	0.000000	0.000000	0.000000	0.000000	0.000000	0.000000	0.000000	0.000000	0.000000	0.000000	0.000000	0.000000	0.000000	0.000000	0.000000	0.000000	0.000000	0.000000	0.000000	0.000000	0.000000	27.289560	2.475691	11.570700	4.978106	-0.262108	-0.639771	-0.580031	0.608975	0.295003	-0.000001	0.000000	0.000000	25.998170	-21.831700	11.703100	46.603210	-16.801910	17.412150	-0.073447	0.733617	0.351409	-17.029250	0.000000	0.000000
